<?xml version="1.0" ?><svg enable-background="new 0 0 515.91 728.5" height="512" id="Layer_1" version="1.1" viewBox="0 0 512.00003 512" width="512" xml:space="preserve" xmlns="http://www.w3.org/2000/svg" xmlns:cc="http://creativecommons.org/ns#" xmlns:dc="http://purl.org/dc/elements/1.1/" xmlns:inkscape="http://www.inkscape.org/namespaces/inkscape" xmlns:rdf="http://www.w3.org/1999/02/22-rdf-syntax-ns#" xmlns:sodipodi="http://sodipodi.sourceforge.net/DTD/sodipodi-0.dtd" xmlns:svg="http://www.w3.org/2000/svg" xmlns:xlink="http://www.w3.org/1999/xlink"><defs id="defs7"><filter color-interpolation-filters="sRGB" id="filter3442"><feGaussianBlur id="feGaussianBlur3444" stdDeviation="2.3432203"/></filter><linearGradient gradientTransform="translate(-322.85714,-811.42857)" gradientUnits="userSpaceOnUse" id="linearGradient3380" x1="447.5928" x2="413.88904" xlink:href="#linearGradient3374" y1="883.36084" y2="910.63495"/><linearGradient id="linearGradient3374"><stop id="stop3376" offset="0" style="stop-color:#ffffff;stop-opacity:0.43727598"/><stop id="stop3378" offset="1" style="stop-color:#ffffff;stop-opacity:0"/></linearGradient><filter color-interpolation-filters="sRGB" id="filter3478"><feGaussianBlur id="feGaussianBlur3480" stdDeviation="3.4723602"/></filter></defs><g id="g6983" style="fill:#7cc040;fill-opacity:1;stroke:none" transform="translate(1.5e-5,0)"><path d="M 0,0 0,512 512,512 512,0 0,0 z" id="path5060" style="fill:#7cc040;fill-opacity:1;fill-rule:nonzero;stroke:none"/><g id="g3372" style="fill:#7cc040;fill-opacity:1;stroke:none" transform="matrix(15.99685,0,0,15.99685,-5338.7915,-6028.4756)"><g id="g3368" style="fill:#7cc040;fill-opacity:1;stroke:none" transform="translate(0.44642857,-0.04464286)"><path d="m 355.84375,380.40625 c -0.0699,0.0404 -0.0811,0.0614 -0.0625,0.0312 -0.67912,1.14393 -0.69662,2.65289 -1,4 a 0.4982215,0.4982215 0 0 1 0,0.0312 c -0.005,0.0197 0.005,0.0429 0,0.0625 -0.14726,1.44619 -0.62399,2.92107 -0.28125,4.3125 a 0.4982215,0.4982215 0 0 1 0.0312,0.0937 c 0.003,0.0101 -0.003,0.0212 0,0.0312 0.005,0.008 -0.005,0.0237 0,0.0312 0.006,0.009 0.0253,-0.008 0.0312,0 0.0731,0.10058 0.16238,0.1759 0.21875,0.1875 0.0403,0.008 0.11021,0.004 0.25,-0.0937 0.15127,-0.1053 0.23683,-0.31627 0.28125,-0.59375 a 0.4982215,0.4982215 0 0 1 0.0625,-0.0937 0.4982215,0.4982215 0 0 1 0,-0.0312 0.4982215,0.4982215 0 0 1 0.0312,-0.0937 0.4982215,0.4982215 0 0 1 0.0312,-0.0312 c 0.59834,-2.38691 1.00327,-4.89182 0.84375,-7.34375 -0.0204,-0.12189 -0.0428,-0.2068 -0.15625,-0.34375 -0.0753,-0.0907 -0.13704,-0.14279 -0.15625,-0.15625 -0.0192,-0.0135 0.007,-0.004 -0.0625,0 a 0.4982215,0.4982215 0 0 1 -0.0312,0 c -0.0257,0.003 -0.0158,-6.1e-4 -0.0312,0 z" id="path3366" style="fill:#7cc040;fill-opacity:1;stroke:none"/><path d="m 361.84375,381.84375 c -1.03636,0.50365 -1.56686,1.70537 -2.28125,2.6875 a 0.46681363,0.46681363 0 0 1 -0.0312,0.0937 0.46681363,0.46681363 0 0 1 -0.0312,0.0625 c -0.90569,1.60511 -2.06123,3.20738 -2.1875,5.0625 -7.1e-4,0.0105 6.5e-4,0.0208 0,0.0312 0.0138,0.27995 0.17412,0.43198 0.34375,0.46875 0.16658,0.036 0.47447,-0.0594 0.59375,-0.25 a 0.46681363,0.46681363 0 0 1 0.0312,-0.0312 0.46681363,0.46681363 0 0 1 0,-0.0312 0.46681363,0.46681363 0 0 1 0,-0.0312 c 1.646,-2.26173 2.88416,-4.92489 3.90625,-7.53125 a 0.46681363,0.46681363 0 0 1 0,-0.0312 c 0.0707,-0.17113 0.0941,-0.21493 0.0312,-0.34375 -0.0185,-0.0381 -0.21237,-0.16871 -0.3125,-0.15625 -0.0163,0.007 -0.0465,-0.008 -0.0625,0 z" id="path3364" style="fill:#7cc040;fill-opacity:1;stroke:none" transform="translate(-0.49107143,-0.26785714)"/></g><path d="m 345.66985,382.2774 c -0.16726,0.0311 -0.4161,0.1809 -0.59375,0.25 -0.62832,0.23837 -0.975,0.77698 -1.125,1.40625 -0.15274,0.64382 -0.10183,1.36084 0,2.09375 0.10181,0.73145 0.24752,1.48649 0.40625,2.0625 0.13645,0.49836 0.23415,0.7408 0.28125,0.90625 l 0,0.125 c 0,0.0545 -0.0261,0.05 -0.0625,0.0937 -0.02,0.0109 0.02,0.0625 0,0.0625 -0.0453,0.0346 -0.0999,0.0625 -0.15625,0.0625 -0.11101,0.007 -0.19778,-0.0334 -0.3125,-0.0625 -0.0782,-0.0181 -0.17995,-0.0807 -0.15625,-0.0625 -0.0363,-0.0218 -0.1013,-0.0243 -0.125,-0.0625 0,0.0146 0.0219,0.0143 0,-0.0312 -0.0254,-0.0473 -0.0537,-0.1664 -0.0937,-0.25 -0.0891,-0.18946 -0.15908,-0.40895 -0.28125,-0.6875 -0.24381,-0.55472 -0.55754,-1.23609 -0.90625,-1.875 -0.34999,-0.64145 -0.76223,-1.22354 -1.21875,-1.625 -0.22817,-0.20054 -0.50982,-0.40155 -0.78125,-0.46875 -0.26199,-0.0655 -0.57287,-0.01 -0.84375,0.125 -0.69997,0.38836 -1.09619,1.02422 -1.25,1.6875 -0.15456,0.67346 -0.0815,1.44899 0.0312,2.125 0.11454,0.67454 0.29189,1.23077 0.40625,1.6875 0.049,0.19254 0.1087,0.37235 0.125,0.46875 0,0.0955 -0.0389,0.3448 -0.0625,0.4375 -0.11818,0.40928 -0.40559,1.09375 -0.40625,1.09375 0,0 -5.45294,14.48293 6.25,13.46875 0.0964,-0.007 0.31535,-0.0625 0.40625,-0.0625 2.29827,-0.46272 4.47308,-1.15769 6.40625,-1.9375 0.3798,-0.182 0.87805,-0.36282 1.4375,-0.625 1.11885,-0.52418 2.52451,-1.19587 3.875,-1.9375 1.35103,-0.74219 2.60454,-1.533 3.5625,-2.375 0.9596,-0.84327 1.65997,-1.76731 1.53125,-2.6875 -0.20364,-1.48345 -1.18879,-2.58587 -2.5,-3.4375 -1.31613,-0.85473 -2.95728,-1.44464 -4.59375,-1.875 -1.63576,-0.43018 -3.2241,-0.78002 -4.4375,-0.96875 -0.60652,-0.0945 -1.1749,-0.122 -1.53125,-0.1875 -0.10544,-0.0181 -0.16175,-0.0443 -0.21875,-0.0625 -0.0307,-0.004 -0.0334,-0.0131 -0.0625,-0.0312 -0.0363,-0.0218 -0.1031,-0.0243 -0.125,-0.0625 -0.02,-0.0363 0,-0.0832 0,-0.125 0,-0.0163 -1.7e-4,-0.0407 0,-0.0625 l 0,-0.90625 c -0.02,-0.748 -0.064,-1.73553 -0.21875,-2.65625 -0.15637,-0.92455 -0.39754,-1.80879 -0.90625,-2.40625 -0.30235,-0.35545 -0.73038,-0.5887 -1.25,-0.625 -0.15636,-0.0182 -0.3311,-0.0309 -0.5,0 z" id="path3302" style="fill:#7cc040;fill-opacity:1;stroke:none"/></g></g><path d="m 191.10175,56.03355 c -12.71361,0.31496 -25.32003,2.91832 -36.12191,7.604611 -25.81652,11.20028 -45.54766,41.187429 -55.223985,84.103399 -6.881663,30.52131 -6.763383,114.06947 0.18107,146.29828 10.187115,47.27828 34.239505,82.26886 63.100185,91.88909 10.68797,3.56264 12.16518,5.3369 16.65772,19.73578 6.98712,22.39424 13.22652,33.29224 23.17597,40.37688 7.00212,4.98593 18.80373,8.75918 29.42261,9.95842 l 13.12701,0 c 4.55306,-0.63039 10.80371,-1.17691 14.39445,-1.17691 6.53681,0 6.88037,-0.94025 6.88037,-18.83047 0,-16.74791 -0.58097,-18.83047 -5.61293,-18.83047 -10.73013,0 -19.82247,-6.49283 -24.89607,-17.7441 -2.79875,-6.20649 -4.63102,-11.72483 -3.98336,-12.2217 0.64765,-0.49686 7.40851,-4.3799 14.93763,-8.69098 37.38011,-21.40335 54.1215,-69.43427 54.22814,-155.44192 C 301.49699,119.61252 275.40468,70.523481 213.644,57.9347 206.36144,56.45028 198.72992,55.84458 191.10175,56.03355 z m 155.71352,20.731621 -4.97921,20.278972 c -2.73352,11.153427 -5.78652,23.863997 -6.78984,28.245707 -1.56069,6.81582 -3.23209,7.96674 -11.85957,7.96674 l -10.13948,0 0,18.83047 0,18.83048 8.69098,0 8.69099,0 0,84.1034 c 0,102.79462 1.15503,106.72089 33.31545,113.79761 9.24851,2.03508 10.87874,1.96648 24.62446,-1.08637 27.41259,-6.08818 28.96999,-7.38925 28.96999,-24.98659 0,-13.66838 -0.6777,-15.60873 -5.0698,-14.30392 -17.37552,5.16204 -21.39701,5.24066 -26.88772,0.27159 -5.35938,-4.85015 -5.70346,-9.34895 -5.70346,-80.0295 l 0,-74.86923 17.38197,0 17.38201,0 0,-17.01986 0,-17.01984 -17.38201,-1.99169 -17.38197,-1.90115 0,-27.24987 c 0,-14.963638 -0.97773,-27.789708 -2.17275,-28.517298 -1.19501,-0.72755 -8.54086,-1.79234 -16.38613,-2.3538 L 346.81527,76.765171 z M 203.14239,98.492643 c 12.17445,0 27.44584,14.649787 33.13439,31.776417 10.05946,30.28617 11.73911,131.99271 2.89699,174.72505 -7.0306,33.97767 -25.62685,51.30012 -44.8129,41.73485 -8.83282,-4.40364 -19.48351,-19.79834 -23.17596,-33.58705 -12.07349,-45.08615 -11.05103,-156.65814 1.72009,-188.57631 5.79726,-14.48872 19.23553,-26.072957 30.23739,-26.072957 z" id="rect2998" style="fill:#ffffff;fill-opacity:1;stroke:none"/></svg>